<?xml version="1.0" standalone="no"?>
<!DOCTYPE svg PUBLIC "-//W3C//DTD SVG 20010904//EN"
 "http://www.w3.org/TR/2001/REC-SVG-20010904/DTD/svg10.dtd">
<svg version="1.0" xmlns="http://www.w3.org/2000/svg"
 width="528.000000pt" height="527.000000pt" viewBox="0 0 528.000000 527.000000"
 preserveAspectRatio="xMidYMid meet">

<g transform="translate(0.000000,527.000000) scale(0.100000,-0.100000)"
fill="#000000" stroke="none">
<path d="M0 2635 l0 -2635 2640 0 2640 0 0 2635 0 2635 -2640 0 -2640 0 0
-2635z m2895 2194 c676 -80 1280 -470 1631 -1054 230 -383 335 -811 312 -1273
-16 -331 -128 -697 -301 -987 -126 -212 -294 -412 -465 -556 -418 -350 -907
-530 -1442 -530 -609 0 -1172 241 -1593 681 -294 307 -483 667 -573 1095 -20
96 -44 331 -44 440 0 377 119 799 318 1130 447 742 1292 1155 2157 1054z"/>
<path d="M2495 4803 c-84 -5 -275 -33 -360 -53 -548 -128 -1051 -495 -1352
-987 -174 -284 -288 -639 -308 -955 -3 -51 -8 -110 -11 -131 l-4 -37 462 2
463 3 3 40 c18 280 102 505 268 721 311 402 868 573 1354 414 315 -103 560
-306 715 -593 85 -157 145 -370 145 -514 l0 -63 468 0 467 0 -6 127 c-21 419
-174 823 -448 1187 -159 211 -422 438 -661 571 -355 196 -789 294 -1195 268z
m128 -225 c12 -10 19 -49 31 -170 8 -90 11 -172 6 -192 -20 -89 -90 -131 -209
-124 -64 3 -74 7 -106 38 -20 19 -40 50 -45 70 -13 45 -40 320 -33 337 3 7 16
16 30 19 44 11 53 -11 69 -171 16 -174 17 -178 51 -205 49 -38 132 -16 152 40
7 23 6 71 -4 180 -8 83 -12 156 -9 164 5 13 16 19 45 25 3 0 13 -5 22 -11z
m377 -39 c131 -23 150 -30 150 -59 0 -33 -25 -43 -81 -31 -29 6 -53 10 -54 9
-2 -2 -17 -79 -34 -173 -37 -200 -42 -215 -75 -215 -50 0 -52 17 -17 208 17
97 31 182 31 189 0 6 -19 14 -42 18 -56 9 -78 22 -78 43 0 27 22 44 50 38 14
-2 81 -14 150 -27z m-915 -110 c59 -52 72 -152 25 -194 -19 -17 -18 -19 54
-76 79 -63 93 -83 75 -105 -24 -29 -63 -15 -144 51 -120 96 -142 88 -98 -35
22 -62 26 -84 17 -97 -17 -27 -50 -28 -68 -1 -14 22 -131 316 -146 370 -12 38
4 54 90 88 101 39 149 39 195 -1z m1290 1 c19 -21 18 -23 -24 -107 -23 -47
-39 -89 -34 -94 4 -4 43 -23 86 -43 l77 -35 14 22 c8 12 27 49 43 82 25 53 31
60 57 60 60 0 57 -19 -46 -232 -91 -190 -96 -198 -126 -201 -23 -2 -34 2 -42
17 -9 17 -3 35 29 100 l40 79 -85 41 c-47 22 -87 41 -90 41 -3 0 -21 -34 -39
-75 -19 -42 -42 -78 -51 -82 -20 -8 -64 13 -64 30 0 23 188 405 202 410 24 10
35 7 53 -13z m-1727 -142 c7 -7 12 -20 12 -29 0 -16 -41 -57 -77 -77 -13 -8 4
-35 92 -158 60 -82 110 -157 113 -167 6 -23 -15 -47 -44 -47 -18 0 -45 31
-134 155 l-111 155 -44 -30 c-54 -37 -82 -39 -91 -5 -4 14 -3 29 0 32 20 20
253 182 262 183 5 0 15 -5 22 -12z"/>
<path d="M1928 4364 l-37 -16 21 -56 c11 -32 22 -58 23 -60 2 -2 26 7 54 19
58 25 74 55 50 98 -18 32 -58 37 -111 15z"/>
<path d="M2535 3849 c-295 -25 -545 -141 -755 -349 -404 -399 -480 -1012 -186
-1495 181 -299 497 -516 831 -570 658 -108 1272 314 1405 964 14 72 20 138 20
239 0 209 -31 343 -119 522 -56 112 -74 141 -147 236 -240 310 -651 488 -1049
453z m413 -308 c21 -11 56 -38 77 -60 37 -38 44 -41 93 -41 69 0 124 -28 159
-82 38 -57 40 -148 4 -199 -45 -65 -77 -83 -145 -82 -151 3 -146 2 -146 39 0
39 12 42 55 14 38 -25 116 -27 157 -2 76 44 96 151 42 219 -65 80 -157 79
-244 -3 -28 -26 -51 -41 -55 -35 -8 14 7 40 39 70 48 45 26 92 -59 132 -85 39
-183 15 -248 -61 l-37 -43 -52 11 c-83 19 -146 -6 -184 -73 -5 -10 -15 -16
-21 -12 -7 5 -6 21 6 53 16 45 16 46 -7 65 -52 42 -107 45 -219 13 -17 -5 -23
-2 -23 9 0 26 81 50 150 45 47 -3 70 -11 103 -35 42 -29 46 -30 142 -27 92 3
100 5 129 31 51 47 65 56 114 70 57 16 119 10 170 -16z m-848 -133 c-1 -7 -7
-24 -15 -38 -31 -54 -12 -164 38 -219 53 -57 156 -77 232 -43 l39 18 55 -33
c30 -18 61 -33 68 -33 7 0 13 -7 13 -15 0 -23 -41 -18 -96 11 -42 22 -53 24
-84 15 -19 -6 -45 -13 -58 -16 -12 -4 -48 -1 -80 5 -65 13 -119 57 -155 125
-25 50 -28 144 -4 198 15 35 47 52 47 25z m655 -217 c-8 -70 -4 -74 80 -81
l60 -5 5 -99 c4 -87 8 -100 27 -113 19 -13 24 -12 42 6 14 14 21 34 21 61 0
29 4 40 15 40 11 0 15 -13 15 -53 0 -43 -5 -58 -22 -74 -34 -30 -56 -35 -87
-18 -36 18 -41 32 -41 111 0 76 -12 104 -44 104 -13 0 -42 7 -65 15 -41 14
-44 14 -95 -15 -59 -34 -66 -35 -66 -17 0 7 19 27 43 43 42 30 71 75 82 127 3
15 12 27 21 27 14 0 15 -9 9 -59z m-351 -473 c3 -13 6 -52 6 -88 0 -78 -8
-110 -26 -110 -11 0 -14 22 -14 103 0 57 3 107 7 110 12 12 21 7 27 -15z m301
-228 c0 -171 -3 -244 -11 -247 -20 -7 -24 36 -24 247 0 211 4 254 24 247 8 -3
11 -76 11 -247z m285 105 c0 -122 -2 -145 -15 -145 -13 0 -15 23 -15 145 0
122 2 145 15 145 13 0 15 -23 15 -145z m-584 -190 c7 -39 1 -151 -8 -161 -4
-3 -11 -3 -17 1 -12 7 -16 177 -4 188 14 14 22 6 29 -28z m582 -87 c-2 -40 -7
-73 -13 -73 -5 0 -11 33 -13 73 -2 60 0 72 13 72 13 0 15 -12 13 -72z"/>
<path d="M3866 2533 c-27 -413 -282 -803 -648 -993 -108 -56 -232 -102 -323
-119 -189 -36 -258 -38 -429 -16 -477 63 -876 396 -1020 855 -29 89 -56 245
-56 318 l0 42 -465 0 -465 0 4 -22 c3 -13 8 -70 11 -128 23 -396 184 -818 435
-1145 298 -390 731 -678 1190 -791 193 -48 327 -65 530 -65 368 0 658 69 995
238 335 168 642 449 853 783 190 301 317 709 325 1043 l2 97 -466 0 -466 0 -7
-97z m-37 -821 c5 -9 12 -55 16 -100 4 -45 12 -85 17 -88 5 -3 33 -7 61 -8 32
-1 84 -15 137 -36 75 -31 85 -38 88 -62 3 -22 -2 -30 -22 -39 -20 -10 -39 -6
-111 20 -47 17 -94 31 -104 31 -55 0 -49 -91 11 -156 52 -56 48 -104 -8 -104
-26 0 -329 279 -340 313 -5 15 0 26 16 39 12 10 27 18 34 18 6 0 38 -23 70
-51 32 -27 62 -46 65 -40 3 5 2 59 -3 120 -8 96 -7 114 8 136 19 29 51 33 65
7z m-2280 -72 c68 -34 121 -115 121 -182 -1 -80 -91 -199 -185 -244 -91 -43
-177 -25 -244 52 -40 45 -51 73 -51 130 0 81 70 181 165 235 62 36 136 39 194
9z m1997 -198 c24 -15 224 -361 224 -386 0 -19 -7 -29 -26 -36 -22 -9 -46 -1
-160 50 -74 33 -139 60 -144 60 -18 0 -10 -21 38 -103 63 -107 64 -112 43
-138 -35 -44 -58 -23 -163 150 -54 87 -105 176 -115 196 -18 37 -17 37 6 56
13 10 29 19 36 19 7 0 57 -21 111 -46 113 -53 175 -76 182 -69 2 2 -21 49 -52
103 -31 54 -56 106 -56 115 0 27 49 47 76 29z m-1687 -58 c112 -61 150 -111
137 -179 -10 -53 -68 -112 -119 -122 l-42 -9 -5 -93 c-6 -106 -17 -125 -64
-103 -25 11 -26 14 -26 112 0 97 -9 140 -31 140 -5 0 -30 -31 -55 -70 -49 -76
-79 -90 -108 -49 -18 26 -21 20 101 229 81 138 112 180 136 180 6 0 40 -16 76
-36z m1335 -140 c9 -8 16 -19 16 -24 0 -20 -13 -40 -26 -40 -8 0 -14 -3 -14
-8 0 -4 22 -73 48 -152 42 -125 52 -145 69 -142 10 1 28 -7 38 -18 27 -30 12
-49 -61 -76 -74 -29 -110 -30 -124 -5 -13 26 -13 27 11 50 l21 20 -48 143
c-47 137 -50 143 -79 148 -22 4 -31 11 -33 29 -5 31 3 38 84 66 82 29 79 29
98 9z m-731 -81 c118 -33 159 -106 138 -248 -15 -106 -44 -162 -101 -193 -42
-22 -53 -24 -143 -18 -122 7 -151 19 -155 66 -4 55 44 388 59 406 11 13 25 15
79 10 36 -4 91 -14 123 -23z m463 -9 c45 -22 64 -60 64 -128 0 -48 -4 -60 -31
-90 l-31 -36 56 -76 c31 -42 56 -80 56 -85 0 -14 -31 -39 -49 -39 -24 0 -40
14 -106 98 -37 46 -64 72 -77 72 -19 0 -20 -4 -13 -90 7 -89 7 -90 -18 -101
-33 -15 -63 1 -70 38 -3 15 -16 112 -28 216 -22 176 -22 188 -6 204 32 32 198
43 253 17z"/>
<path d="M1430 1569 c-73 -29 -150 -126 -150 -187 0 -51 54 -102 107 -102 66
0 161 83 183 160 13 44 -9 94 -52 120 -36 22 -51 24 -88 9z"/>
<path d="M1781 1276 c-29 -46 -26 -63 12 -86 42 -26 72 -25 91 2 26 37 20 65
-21 93 -49 33 -57 32 -82 -9z"/>
<path d="M2335 1088 c-2 -7 -11 -75 -21 -151 -21 -159 -21 -157 61 -157 58 0
88 17 111 62 21 41 30 167 15 197 -24 43 -155 82 -166 49z"/>
<path d="M2771 1081 c-12 -8 -13 -19 -5 -58 9 -48 9 -48 51 -51 68 -5 103 45
67 96 -11 17 -25 22 -57 22 -23 0 -48 -4 -56 -9z"/>
</g>
</svg>
